<svg xmlns="http://www.w3.org/2000/svg" height="16" width="16"><path d="M11 10a2 2 0 1 0 0 4H9v2h2a2 2 0 1 0 0-4h2v-2zm-8 0v6h2a3 3 0 0 0 3-3v-3H6v3a1 1 0 0 1-1 1v-4z" fill="#e0e0e0"/><path d="M7 1l-.56445 2.2578a5 5 0 0 0-.68945.2793L3.7578 2.3437 2.3437 3.7578 3.539 5.7519a5 5 0 0 0-.28516.68555l-2.2539.5625v2h5.2715a2 2 0 0 1 1.72852-3 2 2 0 0 1 1.73047 3h5.2695v-2l-2.2578-.56445a5 5 0 0 0-.2793-.6875l1.1934-1.9902-1.4141-1.4141-1.9941 1.1953a5 5 0 0 0-.68555-.28516l-.5625-2.2539z" fill="none" stroke="#e0e0e0"/></svg>
